<svg width="229" height="18" viewBox="0 0 229 18" fill="none" xmlns="http://www.w3.org/2000/svg">
<rect y="4" width="20" height="4" fill="white"/>
<rect y="8" width="20" height="4" fill="#2F80ED"/>
<path d="M30.254 14V10.29H32.844C34.692 10.29 35.77 9.002 35.77 7.476C35.77 5.95 34.72 4.662 32.844 4.662H29.092V14H30.254ZM32.704 9.254H30.254V5.698H32.704C33.81 5.698 34.566 6.426 34.566 7.476C34.566 8.526 33.81 9.254 32.704 9.254ZM40.0431 14.168C42.1011 14.168 43.3891 12.572 43.3891 10.612C43.3891 8.652 42.1011 7.07 40.0431 7.07C37.9851 7.07 36.6971 8.652 36.6971 10.612C36.6971 12.572 37.9851 14.168 40.0431 14.168ZM40.0431 13.23C38.6011 13.23 37.7891 11.998 37.7891 10.612C37.7891 9.24 38.6011 8.008 40.0431 8.008C41.4851 8.008 42.2831 9.24 42.2831 10.612C42.2831 11.998 41.4851 13.23 40.0431 13.23ZM48.0828 14.168C49.3148 14.168 50.0428 13.664 50.5608 12.992L49.8608 12.348C49.4128 12.95 48.8388 13.23 48.1388 13.23C46.6968 13.23 45.8008 12.11 45.8008 10.612C45.8008 9.114 46.6968 8.008 48.1388 8.008C48.8388 8.008 49.4128 8.274 49.8608 8.89L50.5608 8.246C50.0428 7.574 49.3148 7.07 48.0828 7.07C46.0668 7.07 44.7088 8.61 44.7088 10.612C44.7088 12.628 46.0668 14.168 48.0828 14.168ZM55.0144 14.168C56.2464 14.168 56.9744 13.664 57.4924 12.992L56.7924 12.348C56.3444 12.95 55.7704 13.23 55.0704 13.23C53.6284 13.23 52.7324 12.11 52.7324 10.612C52.7324 9.114 53.6284 8.008 55.0704 8.008C55.7704 8.008 56.3444 8.274 56.7924 8.89L57.4924 8.246C56.9744 7.574 56.2464 7.07 55.0144 7.07C52.9984 7.07 51.6404 8.61 51.6404 10.612C51.6404 12.628 52.9984 14.168 55.0144 14.168ZM59.9721 14L63.5421 8.736V14H64.5921V7.238H63.5561L60.0141 12.404V7.238H58.9641V14H59.9721ZM67.6967 14L69.3487 11.382H71.1967V14H72.2467V7.238H68.6767C67.3047 7.238 66.5347 8.162 66.5347 9.31C66.5347 10.444 67.2627 11.214 68.2707 11.34L66.4647 14H67.6967ZM68.7887 10.458C68.0187 10.458 67.6127 9.982 67.6127 9.31C67.6127 8.638 68.0467 8.162 68.7887 8.162H71.1967V10.458H68.7887ZM74.9049 8.68C75.3249 8.68 75.6749 8.33 75.6749 7.91C75.6749 7.49 75.3249 7.14 74.9049 7.14C74.4849 7.14 74.1349 7.49 74.1349 7.91C74.1349 8.33 74.4849 8.68 74.9049 8.68ZM74.9049 14.14C75.3249 14.14 75.6749 13.79 75.6749 13.37C75.6749 12.95 75.3249 12.6 74.9049 12.6C74.4849 12.6 74.1349 12.95 74.1349 13.37C74.1349 13.79 74.4849 14.14 74.9049 14.14Z" fill="white"/>
<path d="M114.65 8.828V7.722H112.144V4.992H110.926V7.722H108.406V8.828H110.926V11.67H112.144V8.828H114.65ZM118.933 13L122.405 5.048V3.662H115.391V5.412H120.095L116.749 13H118.933ZM130.172 14.918C129.234 13.238 128.758 11.698 128.758 9.598C128.758 7.498 129.234 5.958 130.172 4.25L129.052 3.41C127.694 4.95 126.84 7.344 126.84 9.598C126.84 11.852 127.694 14.26 129.052 15.786L130.172 14.918ZM137.226 13V11.068H138.43V9.318H137.226V3.662H134.482L130.772 9.5V11.068H135.238V13H137.226ZM135.238 9.318H132.718L135.238 5.426V9.318ZM142.457 13.154C145.215 13.154 146.797 11.152 146.797 8.338C146.797 5.692 145.607 3.508 142.779 3.508C140.651 3.508 139.195 4.894 139.195 6.714C139.195 8.702 140.707 9.752 142.387 9.752C143.409 9.752 144.347 9.178 144.795 8.548C144.795 8.618 144.795 8.688 144.795 8.758C144.795 10.102 143.997 11.39 142.457 11.39C141.631 11.39 141.099 11.138 140.595 10.662L139.713 12.188C140.371 12.776 141.323 13.154 142.457 13.154ZM142.947 8.044C142.079 8.044 141.225 7.624 141.225 6.644C141.225 6 141.813 5.272 142.877 5.272C144.193 5.272 144.697 6.28 144.781 7.176C144.333 7.722 143.647 8.044 142.947 8.044ZM150.975 13.154C153.733 13.154 155.315 11.152 155.315 8.338C155.315 5.692 154.125 3.508 151.297 3.508C149.169 3.508 147.713 4.894 147.713 6.714C147.713 8.702 149.225 9.752 150.905 9.752C151.927 9.752 152.865 9.178 153.313 8.548C153.313 8.618 153.313 8.688 153.313 8.758C153.313 10.102 152.515 11.39 150.975 11.39C150.149 11.39 149.617 11.138 149.113 10.662L148.231 12.188C148.889 12.776 149.841 13.154 150.975 13.154ZM151.465 8.044C150.597 8.044 149.743 7.624 149.743 6.644C149.743 6 150.331 5.272 151.395 5.272C152.711 5.272 153.215 6.28 153.299 7.176C152.851 7.722 152.165 8.044 151.465 8.044ZM157.169 15.786C158.541 14.26 159.409 11.852 159.409 9.598C159.409 7.344 158.541 4.95 157.169 3.41L156.049 4.25C157.015 5.958 157.477 7.498 157.477 9.598C157.477 11.698 157.015 13.238 156.049 14.918L157.169 15.786ZM167.511 13.168C169.751 13.168 171.193 12.034 171.193 10.424C171.193 9.024 169.961 8.282 169.009 8.184C170.045 8.002 171.053 7.232 171.053 6.056C171.053 4.502 169.709 3.522 167.525 3.522C165.887 3.522 164.711 4.152 163.955 5.006L164.949 6.252C165.607 5.622 166.419 5.286 167.315 5.286C168.295 5.286 169.051 5.65 169.051 6.392C169.051 7.078 168.365 7.386 167.329 7.386C166.979 7.386 166.335 7.386 166.167 7.372V9.164C166.307 9.15 166.937 9.136 167.329 9.136C168.631 9.136 169.205 9.472 169.205 10.214C169.205 10.914 168.575 11.404 167.441 11.404C166.531 11.404 165.509 11.012 164.865 10.34L163.829 11.67C164.515 12.51 165.789 13.168 167.511 13.168ZM179.452 13V11.25H175.644C178.066 9.486 179.382 8.1 179.382 6.504C179.382 4.642 177.8 3.522 175.812 3.522C174.51 3.522 173.124 3.998 172.214 5.048L173.348 6.364C173.978 5.706 174.79 5.286 175.854 5.286C176.624 5.286 177.366 5.692 177.366 6.504C177.366 7.652 176.246 8.618 172.424 11.446V13H179.452ZM187.846 13V11.25H184.038C186.46 9.486 187.776 8.1 187.776 6.504C187.776 4.642 186.194 3.522 184.206 3.522C182.904 3.522 181.518 3.998 180.608 5.048L181.742 6.364C182.372 5.706 183.184 5.286 184.248 5.286C185.018 5.286 185.76 5.692 185.76 6.504C185.76 7.652 184.64 8.618 180.818 11.446V13H187.846ZM196.379 13.168C198.339 13.168 200.131 12.314 200.131 10.578C200.131 9.444 199.235 8.576 198.115 8.184C199.151 7.82 199.977 7.148 199.977 5.986C199.977 4.236 198.101 3.522 196.379 3.522C194.643 3.522 192.781 4.236 192.781 5.986C192.781 7.148 193.593 7.82 194.629 8.184C193.509 8.576 192.627 9.444 192.627 10.578C192.627 12.328 194.419 13.168 196.379 13.168ZM196.379 7.4C195.805 7.316 194.797 6.994 194.797 6.294C194.797 5.622 195.455 5.23 196.379 5.23C197.289 5.23 197.947 5.622 197.947 6.294C197.947 6.994 196.953 7.316 196.379 7.4ZM196.379 11.46C195.399 11.46 194.643 11.012 194.643 10.326C194.643 9.542 195.791 9.164 196.379 9.08C196.953 9.164 198.115 9.542 198.115 10.326C198.115 11.012 197.331 11.46 196.379 11.46ZM204.505 13L207.977 5.048V3.662H200.963V5.412H205.667L202.321 13H204.505ZM219.524 13V11.25H215.716C218.138 9.486 219.454 8.1 219.454 6.504C219.454 4.642 217.872 3.522 215.884 3.522C214.582 3.522 213.196 3.998 212.286 5.048L213.42 6.364C214.05 5.706 214.862 5.286 215.926 5.286C216.696 5.286 217.438 5.692 217.438 6.504C217.438 7.652 216.318 8.618 212.496 11.446V13H219.524ZM224.74 13.168C226.868 13.168 228.31 11.782 228.31 9.962C228.31 7.974 226.812 6.924 225.132 6.924C224.11 6.924 223.172 7.498 222.738 8.128C222.724 8.058 222.724 8.002 222.724 7.932C222.724 6.448 223.69 5.286 225.062 5.286C225.888 5.286 226.42 5.538 226.924 6.014L227.82 4.488C227.148 3.914 226.196 3.522 225.062 3.522C222.304 3.522 220.708 5.524 220.708 8.352C220.708 10.984 221.898 13.168 224.74 13.168ZM224.628 11.404C223.326 11.404 222.822 10.41 222.738 9.514C223.186 8.954 223.858 8.632 224.558 8.632C225.454 8.632 226.294 9.052 226.294 10.032C226.294 10.69 225.706 11.404 224.628 11.404Z" fill="white"/>
<rect y="12" width="20" height="4" fill="#EB5757"/>
</svg>
